# Blender v2.79 (sub 0) OBJ File: ''
# www.blender.org
mtllib sky.mtl
v 1.219768 -0.353146 9.189875
v -0.970258 8.196977 8.254205
v -0.970255 8.196982 -8.254199
v 0.658367 -0.353140 -6.881881
v -100.000000 -0.000016 100.000000
v 100.000000 -0.000015 90.000000
v -80.000000 0.000011 -70.000000
v 60.000000 0.000008 -50.000000
v -12.510235 8.196977 8.254205
v -12.510232 8.196982 -8.254199
v -10.140121 -1.870299 9.189879
v -10.701522 -1.870292 -6.881876
v 58.516342 -1.845556 83.187126
v 58.516342 67.637161 83.187119
v 58.516342 67.637215 -49.194485
v 58.516342 -1.845501 -49.194481
v -78.863899 67.637161 83.187119
v -78.863899 67.637215 -49.194485
v -78.863899 -2.024426 83.187126
v -78.863899 -2.024370 -49.194485
v -6.784978 0.311594 41.208046
v -4.906871 1.746351 42.572552
v -7.502337 1.746351 43.415886
v -9.106463 1.746351 41.208046
v -7.502337 1.746351 39.000206
v -4.906871 1.746351 39.843540
v -6.067620 4.067849 43.415886
v -8.663086 4.067849 42.572552
v -8.663086 4.067848 39.843540
v -6.067620 4.067849 39.000206
v -4.463493 4.067848 41.208046
v -6.784978 5.502606 41.208046
vt 0.000000 0.000000
vt 1.000000 0.000000
vt 1.000000 1.000000
vt 0.000000 0.000000
vt 1.000000 0.000000
vt 1.000000 1.000000
vt 1.000000 0.000000
vt 1.000000 1.000000
vt 1.000000 0.000000
vt 1.000000 1.000000
vt 1.000000 0.000000
vt 1.000000 0.000000
vt 1.000000 1.000000
vt 0.000000 0.000000
vt 1.000000 1.000000
vt 0.000000 0.000000
vt 1.000000 1.000000
vt 0.000000 0.000000
vt 1.000000 1.000000
vt 0.000000 0.000000
vt 1.000000 1.000000
vt 1.000000 0.000000
vt 1.000000 0.000000
vt 1.000000 0.000000
vt 1.000000 0.000000
vt 1.000000 0.000000
vt 0.000000 0.000000
vt 1.000000 1.000000
vt 0.000000 0.000000
vt 0.000000 0.000000
vt 0.000000 0.000000
vt 0.000000 0.000000
vt 1.000000 1.000000
vt 1.000000 0.000000
vt 0.000000 0.000000
vt 0.000000 1.000000
vt 0.000000 1.000000
vt 1.000000 0.000000
vt 0.000000 1.000000
vt 0.000000 0.000000
vt 1.000000 0.000000
vt 0.000000 1.000000
vt 0.000000 0.000000
vt 0.000000 0.000000
vt 1.000000 1.000000
vt 1.000000 0.000000
vt 1.000000 1.000000
vt 1.000000 1.000000
vt 1.000000 1.000000
vt 1.000000 0.000000
vt 0.000000 0.000000
vt 0.000000 1.000000
vt 0.000000 1.000000
vt 1.000000 0.000000
vt 0.000000 1.000000
vt 0.000000 0.000000
vt 1.000000 0.000000
vt 0.000000 1.000000
vt 0.000000 0.000000
vt 0.000000 0.000000
vt 1.000000 1.000000
vt 1.000000 0.000000
vt 1.000000 1.000000
vt 1.000000 1.000000
vt -11.912571 12.912571
vt 12.912571 -11.912571
vt 12.912571 12.912571
vt -11.912571 -11.912571
vn 0.1876 -0.7947 0.5774
vn 0.6071 -0.7947 0.0000
vn -0.4911 -0.7947 0.3568
vn -0.4911 -0.7947 -0.3568
vn 0.1876 -0.7947 -0.5774
vn 0.9822 -0.1876 0.0000
vn 0.3035 -0.1876 0.9342
vn -0.7946 -0.1876 0.5774
vn -0.7946 -0.1876 -0.5774
vn 0.3035 -0.1876 -0.9342
vn 0.7946 0.1876 0.5774
vn -0.3035 0.1876 0.9342
vn -0.9822 0.1876 -0.0000
vn -0.3035 0.1876 -0.9342
vn 0.7946 0.1876 -0.5774
vn 0.4911 0.7947 0.3568
vn -0.1876 0.7947 0.5774
vn -0.6071 0.7947 -0.0000
vn -0.1876 0.7947 -0.5774
vn 0.4911 0.7947 -0.3568
vn -0.9687 -0.2481 -0.0000
vn -0.9828 -0.1817 0.0343
vn 0.0055 -0.6952 -0.7188
vn 0.6193 -0.4940 0.6103
vn 0.0000 -0.5975 0.8019
vn 0.6453 -0.5357 -0.5447
vn 0.7023 0.2322 0.6730
vn 0.6430 0.0755 -0.7621
vn 0.0141 -0.1052 -0.9944
vn -0.0083 0.1460 0.9892
vn -1.0000 0.0000 0.0000
vn 0.0000 -0.7071 -0.7071
vn 0.5774 -0.5774 0.5774
vn 0.0000 -0.7071 0.7071
vn 0.5774 -0.5774 -0.5774
vn 0.7074 0.0000 0.7068
vn 0.7074 0.0000 -0.7068
vn 0.0000 -0.0000 -1.0000
vn -0.0000 0.0000 1.0000
vn 0.0000 1.0000 0.0000
usemtl Sky
s off
f 21/1/1 22/2/1 23/3/1
f 22/4/2 21/5/2 26/6/2
f 21/1/3 23/7/3 24/8/3
f 21/1/4 24/9/4 25/10/4
f 21/1/5 25/11/5 26/6/5
f 22/4/6 26/12/6 31/13/6
f 23/14/7 22/2/7 27/15/7
f 24/16/8 23/7/8 28/17/8
f 25/18/9 24/9/9 29/19/9
f 26/20/10 25/11/10 30/21/10
f 22/4/11 31/22/11 27/15/11
f 23/14/12 27/23/12 28/17/12
f 24/16/13 28/24/13 29/19/13
f 25/18/14 29/25/14 30/21/14
f 26/20/15 30/26/15 31/13/15
f 27/27/16 31/22/16 32/28/16
f 28/29/17 27/23/17 32/28/17
f 29/30/18 28/24/18 32/28/18
f 30/31/19 29/25/19 32/28/19
f 31/32/20 30/26/20 32/28/20
s 1
f 1/33/21 2/34/21 3/35/21
f 1/33/22 3/35/22 4/36/22
f 2/34/23 10/37/24 3/35/25
f 9/38/26 12/39/27 10/40/24
f 11/41/28 2/42/23 1/43/29
f 4/44/30 10/45/24 12/39/27
f 4/44/30 3/46/25 10/45/24
f 9/38/26 11/47/28 12/39/27
f 11/41/28 9/48/26 2/42/23
f 2/34/23 9/48/26 10/37/24
f 13/49/31 14/50/31 15/51/31
f 13/49/31 15/51/31 16/52/31
f 14/50/32 18/53/33 15/51/34
f 17/54/35 20/55/36 18/56/33
f 19/57/37 14/58/32 13/59/38
f 16/60/39 18/61/33 20/55/36
f 16/60/39 15/62/34 18/61/33
f 17/54/35 19/63/37 20/55/36
f 19/57/37 17/64/35 14/58/32
f 14/50/32 17/64/35 18/53/33
usemtl Water
s off
f 6/65/40 7/66/40 5/67/40
f 6/65/40 8/68/40 7/66/40
